<svg xmlns="http://www.w3.org/2000/svg" xmlns:xlink="http://www.w3.org/1999/xlink" width="0" height="0" style="position:absolute">

  <symbol id="icon-500px" viewBox="0 0 448 512">
    <path fill="currentColor" d="M103.3 344.3c-6.5-14.2-6.9-18.3 7.4-23.1 25.6-8 8 9.2 43.2 49.2h.3v-93.9c1.2-50.2 44-92.2 97.7-92.2 53.9 0 97.7 43.5 97.7 96.8 0 63.4-60.8 113.2-128.5 93.3-10.5-4.2-2.1-31.7 8.5-28.6 53 0 89.4-10.1 89.4-64.4 0-61-77.1-89.6-116.9-44.6-23.5 26.4-17.6 42.1-17.6 157.6 50.7 31 118.3 22 160.4-20.1 24.8-24.8 38.5-58 38.5-93 0-35.2-13.8-68.2-38.8-93.3-24.8-24.8-57.8-38.5-93.3-38.5s-68.8 13.8-93.5 38.5c-.3.3-16 16.5-21.2 23.9l-.5.6c-3.3 4.7-6.3 9.1-20.1 6.1-6.9-1.7-14.3-5.8-14.3-11.8V20c0-5 3.9-10.5 10.5-10.5h241.3c8.3 0 8.3 11.6 8.3 15.1 0 3.9 0 15.1-8.3 15.1H130.3v132.9h.3c104.2-109.8 282.8-36 282.8 108.9 0 178.1-244.8 220.3-310.1 62.8zm63.3-260.8c-.5 4.2 4.6 24.5 14.6 20.6C306 56.6 384 144.5 390.6 144.5c4.8 0 22.8-15.3 14.3-22.8-93.2-89-234.5-57-238.3-38.2zM393 414.7C283 524.6 94 475.5 61 310.5c0-12.2-30.4-7.4-28.9 3.3 24 173.4 246 256.9 381.6 121.3 6.9-7.8-12.6-28.4-20.7-20.4zM213.6 306.6c0 4 4.3 7.3 5.5 8.5 3 3 6.1 4.4 8.5 4.4 3.8 0 2.6.2 22.3-19.5 19.6 19.3 19.1 19.5 22.3 19.5 5.4 0 18.5-10.4 10.7-18.2L265.6 284l18.2-18.2c6.3-6.8-10.1-21.8-16.2-15.7L249.7 268c-18.6-18.8-18.4-19.5-21.5-19.5-5 0-18 11.7-12.4 17.3L234 284c-18.1 17.9-20.4 19.2-20.4 22.6z"></path>
  </symbol>

  <symbol id="icon-amazon" viewBox="0 0 448 512">
    <path fill="currentColor" d="M257.2 162.7c-48.7 1.8-169.5 15.5-169.5 117.5 0 109.5 138.3 114 183.5 43.2 6.5 10.2 35.4 37.5 45.3 46.8l56.8-56S341 288.9 341 261.4V114.3C341 89 316.5 32 228.7 32 140.7 32 94 87 94 136.3l73.5 6.8c16.3-49.5 54.2-49.5 54.2-49.5 40.7-.1 35.5 29.8 35.5 69.1zm0 86.8c0 80-84.2 68-84.2 17.2 0-47.2 50.5-56.7 84.2-57.8v40.6zm136 163.5c-7.7 10-70 67-174.5 67S34.2 408.5 9.7 379c-6.8-7.7 1-11.3 5.5-8.3C88.5 415.2 203 488.5 387.7 401c7.5-3.7 13.3 2 5.5 12zm39.8 2.2c-6.5 15.8-16 26.8-21.2 31-5.5 4.5-9.5 2.7-6.5-3.8s19.3-46.5 12.7-55c-6.5-8.3-37-4.3-48-3.2-10.8 1-13 2-14-.3-2.3-5.7 21.7-15.5 37.5-17.5 15.7-1.8 41-.8 46 5.7 3.7 5.1 0 27.1-6.5 43.1z"></path>
  </symbol>

  <symbol id="icon-arrow-down" viewBox="0 0 11 11">
    <path fill="currentColor" d="M5.5 7.162l4.738-4.738.707.707L5.5 8.576.055 3.13l.707-.707z"></path>
  </symbol>

  <symbol id="icon-arrow-left" viewBox="0 0 11 11">
    <path fill="currentColor" d="M2.838 5.5l4.738 4.738-.707.707L1.424 5.5 6.87.055l.707.707z"></path>
  </symbol>

  <symbol id="icon-arrow-right" viewBox="0 0 11 11">
    <path fill="currentColor" d="M8.162 5.5L3.424.762l.707-.707L9.576 5.5 4.13 10.945l-.707-.707z"></path>
  </symbol>

  <symbol id="icon-behance" viewBox="0 0 576 512">
    <path fill="currentColor" d="M232 237.2c31.8-15.2 48.4-38.2 48.4-74 0-70.6-52.6-87.8-113.3-87.8H0v354.4h171.8c64.4 0 124.9-30.9 124.9-102.9 0-44.5-21.1-77.4-64.7-89.7zM77.9 135.9H151c28.1 0 53.4 7.9 53.4 40.5 0 30.1-19.7 42.2-47.5 42.2h-79v-82.7zm83.3 233.7H77.9V272h84.9c34.3 0 56 14.3 56 50.6 0 35.8-25.9 47-57.6 47zm358.5-240.7H376V94h143.7v34.9zM576 305.2c0-75.9-44.4-139.2-124.9-139.2-78.2 0-131.3 58.8-131.3 135.8 0 79.9 50.3 134.7 131.3 134.7 61.3 0 101-27.6 120.1-86.3H509c-6.7 21.9-34.3 33.5-55.7 33.5-41.3 0-63-24.2-63-65.3h185.1c.3-4.2.6-8.7.6-13.2zM390.4 274c2.3-33.7 24.7-54.8 58.5-54.8 35.4 0 53.2 20.8 56.2 54.8H390.4z"></path>
  </symbol>

  <symbol id="icon-bitbucket" viewBox="0 0 512 512">
    <path fill="currentColor" d="M23.1 32C14.2 31.9 7 38.9 6.9 47.8c0 .9.1 1.8.2 2.8L74.9 462c1.7 10.4 10.7 18 21.2 18.1h325.1c7.9.1 14.7-5.6 16-13.4l67.8-416c1.4-8.7-4.5-16.9-13.2-18.3-.9-.1-1.8-.2-2.8-.2L23.1 32zm285.3 297.3H204.6l-28.1-146.8h157l-25.1 146.8z"></path>
  </symbol>

  <symbol id="icon-chain" viewBox="0 0 512 512">
    <path fill="currentColor" d="M326.612 185.391c59.747 59.809 58.927 155.698.36 214.59-.11.12-.24.25-.36.37l-67.2 67.2c-59.27 59.27-155.699 59.262-214.96 0-59.27-59.26-59.27-155.7 0-214.96l37.106-37.106c9.84-9.84 26.786-3.3 27.294 10.606.648 17.722 3.826 35.527 9.69 52.721 1.986 5.822.567 12.262-3.783 16.612l-13.087 13.087c-28.026 28.026-28.905 73.66-1.155 101.96 28.024 28.579 74.086 28.749 102.325.51l67.2-67.19c28.191-28.191 28.073-73.757 0-101.83-3.701-3.694-7.429-6.564-10.341-8.569a16.037 16.037 0 0 1-6.947-12.606c-.396-10.567 3.348-21.456 11.698-29.806l21.054-21.055c5.521-5.521 14.182-6.199 20.584-1.731a152.482 152.482 0 0 1 20.522 17.197zM467.547 44.449c-59.261-59.262-155.69-59.27-214.96 0l-67.2 67.2c-.12.12-.25.25-.36.37-58.566 58.892-59.387 154.781.36 214.59a152.454 152.454 0 0 0 20.521 17.196c6.402 4.468 15.064 3.789 20.584-1.731l21.054-21.055c8.35-8.35 12.094-19.239 11.698-29.806a16.037 16.037 0 0 0-6.947-12.606c-2.912-2.005-6.64-4.875-10.341-8.569-28.073-28.073-28.191-73.639 0-101.83l67.2-67.19c28.239-28.239 74.3-28.069 102.325.51 27.75 28.3 26.872 73.934-1.155 101.96l-13.087 13.087c-4.35 4.35-5.769 10.79-3.783 16.612 5.864 17.194 9.042 34.999 9.69 52.721.509 13.906 17.454 20.446 27.294 10.606l37.106-37.106c59.271-59.259 59.271-155.699.001-214.959z"></path>
  </symbol>

  <symbol id="icon-close" viewBox="0 0 11 11">
    <path fill="currentColor" d="M5.5 4.793L10.238.055l.707.707L6.207 5.5l4.738 4.738-.707.707L5.5 6.207.762 10.945l-.707-.707L4.793 5.5.055.762.762.055z"></path>
  </symbol>

  <symbol id="icon-codepen" viewBox="0 0 512 512">
    <path fill="currentColor" d="M502.285 159.704l-234-156c-7.987-4.915-16.511-4.96-24.571 0l-234 156C3.714 163.703 0 170.847 0 177.989v155.999c0 7.143 3.714 14.286 9.715 18.286l234 156.022c7.987 4.915 16.511 4.96 24.571 0l234-156.022c6-3.999 9.715-11.143 9.715-18.286V177.989c-.001-7.142-3.715-14.286-9.716-18.285zM278 63.131l172.286 114.858-76.857 51.429L278 165.703V63.131zm-44 0v102.572l-95.429 63.715-76.857-51.429L234 63.131zM44 219.132l55.143 36.857L44 292.846v-73.714zm190 229.715L61.714 333.989l76.857-51.429L234 346.275v102.572zm22-140.858l-77.715-52 77.715-52 77.715 52-77.715 52zm22 140.858V346.275l95.429-63.715 76.857 51.429L278 448.847zm190-156.001l-55.143-36.857L468 219.132v73.714z"></path>
  </symbol>

  <symbol id="icon-deviantart" viewBox="0 0 320 512">
    <path fill="currentColor" d="M320 93.2l-98.2 179.1 7.4 9.5H320v127.7H159.1l-13.5 9.2-43.7 84c-.3 0-8.6 8.6-9.2 9.2H0v-93.2l93.2-179.4-7.4-9.2H0V102.5h156l13.5-9.2 43.7-84c.3 0 8.6-8.6 9.2-9.2H320v93.1z"></path>
  </symbol>

  <symbol id="icon-digg" viewBox="0 0 512 512">
    <path fill="currentColor" d="M81.7 172.3H0v174.4h132.7V96h-51v76.3zm0 133.4H50.9v-92.3h30.8v92.3zm297.2-133.4v174.4h81.8v28.5h-81.8V416H512V172.3H378.9zm81.8 133.4h-30.8v-92.3h30.8v92.3zm-235.6 41h82.1v28.5h-82.1V416h133.3V172.3H225.1v174.4zm51.2-133.3h30.8v92.3h-30.8v-92.3zM153.3 96h51.3v51h-51.3V96zm0 76.3h51.3v174.4h-51.3V172.3z"></path>
  </symbol>

  <symbol id="icon-discord" viewBox="0 0 448 512">
    <path fill="currentColor" d="M297.216 243.2c0 15.616-11.52 28.416-26.112 28.416-14.336 0-26.112-12.8-26.112-28.416s11.52-28.416 26.112-28.416c14.592 0 26.112 12.8 26.112 28.416zm-119.552-28.416c-14.592 0-26.112 12.8-26.112 28.416s11.776 28.416 26.112 28.416c14.592 0 26.112-12.8 26.112-28.416.256-15.616-11.52-28.416-26.112-28.416zM448 52.736V512c-64.494-56.994-43.868-38.128-118.784-107.776l13.568 47.36H52.48C23.552 451.584 0 428.032 0 398.848V52.736C0 23.552 23.552 0 52.48 0h343.04C424.448 0 448 23.552 448 52.736zm-72.96 242.688c0-82.432-36.864-149.248-36.864-149.248-36.864-27.648-71.936-26.88-71.936-26.88l-3.584 4.096c43.52 13.312 63.744 32.512 63.744 32.512-60.811-33.329-132.244-33.335-191.232-7.424-9.472 4.352-15.104 7.424-15.104 7.424s21.248-20.224 67.328-33.536l-2.56-3.072s-35.072-.768-71.936 26.88c0 0-36.864 66.816-36.864 149.248 0 0 21.504 37.12 78.08 38.912 0 0 9.472-11.52 17.152-21.248-32.512-9.728-44.8-30.208-44.8-30.208 3.766 2.636 9.976 6.053 10.496 6.4 43.21 24.198 104.588 32.126 159.744 8.96 8.96-3.328 18.944-8.192 29.44-15.104 0 0-12.8 20.992-46.336 30.464 7.68 9.728 16.896 20.736 16.896 20.736 56.576-1.792 78.336-38.912 78.336-38.912z"></path>
  </symbol>

  <symbol id="icon-dribbble" viewBox="0 0 512 512">
    <path fill="currentColor" d="M256 8C119.252 8 8 119.252 8 256s111.252 248 248 248 248-111.252 248-248S392.748 8 256 8zm163.97 114.366c29.503 36.046 47.369 81.957 47.835 131.955-6.984-1.477-77.018-15.682-147.502-6.818-5.752-14.041-11.181-26.393-18.617-41.614 78.321-31.977 113.818-77.482 118.284-83.523zM396.421 97.87c-3.81 5.427-35.697 48.286-111.021 76.519-34.712-63.776-73.185-116.168-79.04-124.008 67.176-16.193 137.966 1.27 190.061 47.489zm-230.48-33.25c5.585 7.659 43.438 60.116 78.537 122.509-99.087 26.313-186.36 25.934-195.834 25.809C62.38 147.205 106.678 92.573 165.941 64.62zM44.17 256.323c0-2.166.043-4.322.108-6.473 9.268.19 111.92 1.513 217.706-30.146 6.064 11.868 11.857 23.915 17.174 35.949-76.599 21.575-146.194 83.527-180.531 142.306C64.794 360.405 44.17 310.73 44.17 256.323zm81.807 167.113c22.127-45.233 82.178-103.622 167.579-132.756 29.74 77.283 42.039 142.053 45.189 160.638-68.112 29.013-150.015 21.053-212.768-27.882zm248.38 8.489c-2.171-12.886-13.446-74.897-41.152-151.033 66.38-10.626 124.7 6.768 131.947 9.055-9.442 58.941-43.273 109.844-90.795 141.978z"></path>
  </symbol>

  <symbol id="icon-etsy" viewBox="0 0 384 512">
    <path fill="currentColor" d="M384 348c-1.75 10.75-13.75 110-15.5 132-117.879-4.299-219.895-4.743-368.5 0v-25.5c45.457-8.948 60.627-8.019 61-35.25 1.793-72.322 3.524-244.143 0-322-1.029-28.46-12.13-26.765-61-36v-25.5c73.886 2.358 255.933 8.551 362.999-3.75-3.5 38.25-7.75 126.5-7.75 126.5H332C320.947 115.665 313.241 68 277.25 68h-137c-10.25 0-10.75 3.5-10.75 9.75V241.5c58 .5 88.5-2.5 88.5-2.5 29.77-.951 27.56-8.502 40.75-65.251h25.75c-4.407 101.351-3.91 61.829-1.75 160.25H257c-9.155-40.086-9.065-61.045-39.501-61.5 0 0-21.5-2-88-2v139c0 26 14.25 38.25 44.25 38.25H263c63.636 0 66.564-24.996 98.751-99.75H384z"></path>
  </symbol>

  <symbol id="icon-facebook" viewBox="0 0 264 512">
    <path fill="currentColor" d="M76.7 512V283H0v-91h76.7v-71.7C76.7 42.4 124.3 0 193.8 0c33.3 0 61.9 2.5 70.2 3.6V85h-48.2c-37.8 0-45.1 18-45.1 44.3V192H256l-11.7 91h-73.6v229"></path>
  </symbol>

  <symbol id="icon-flickr" viewBox="0 0 448 512">
    <path fill="currentColor" d="M400 32H48C21.5 32 0 53.5 0 80v352c0 26.5 21.5 48 48 48h352c26.5 0 48-21.5 48-48V80c0-26.5-21.5-48-48-48zM144.5 319c-35.1 0-63.5-28.4-63.5-63.5s28.4-63.5 63.5-63.5 63.5 28.4 63.5 63.5-28.4 63.5-63.5 63.5zm159 0c-35.1 0-63.5-28.4-63.5-63.5s28.4-63.5 63.5-63.5 63.5 28.4 63.5 63.5-28.4 63.5-63.5 63.5z"></path>
  </symbol>

  <symbol id="icon-foursquare" viewBox="0 0 368 512">
    <path fill="currentColor" d="M323.1 3H49.9C12.4 3 0 31.3 0 49.1v433.8c0 20.3 12.1 27.7 18.2 30.1 6.2 2.5 22.8 4.6 32.9-7.1C180 356.5 182.2 354 182.2 354c3.1-3.4 3.4-3.1 6.8-3.1h83.4c35.1 0 40.6-25.2 44.3-39.7l48.6-243C373.8 25.8 363.1 3 323.1 3zm-16.3 73.8l-11.4 59.7c-1.2 6.5-9.5 13.2-16.9 13.2H172.1c-12 0-20.6 8.3-20.6 20.3v13c0 12 8.6 20.6 20.6 20.6h90.4c8.3 0 16.6 9.2 14.8 18.2-1.8 8.9-10.5 53.8-11.4 58.8-.9 4.9-6.8 13.5-16.9 13.5h-73.5c-13.5 0-17.2 1.8-26.5 12.6 0 0-8.9 11.4-89.5 108.3-.9.9-1.8.6-1.8-.3V75.9c0-7.7 6.8-16.6 16.6-16.6h219c8.2 0 15.6 7.7 13.5 17.5z"></path>
  </symbol>

  <symbol id="icon-github" viewBox="0 0 496 512">
    <path fill="currentColor" d="M165.9 397.4c0 2-2.3 3.6-5.2 3.6-3.3.3-5.6-1.3-5.6-3.6 0-2 2.3-3.6 5.2-3.6 3-.3 5.6 1.3 5.6 3.6zm-31.1-4.5c-.7 2 1.3 4.3 4.3 4.9 2.6 1 5.6 0 6.2-2s-1.3-4.3-4.3-5.2c-2.6-.7-5.5.3-6.2 2.3zm44.2-1.7c-2.9.7-4.9 2.6-4.6 4.9.3 2 2.9 3.3 5.9 2.6 2.9-.7 4.9-2.6 4.6-4.6-.3-1.9-3-3.2-5.9-2.9zM244.8 8C106.1 8 0 113.3 0 252c0 110.9 69.8 205.8 169.5 239.2 12.8 2.3 17.3-5.6 17.3-12.1 0-6.2-.3-40.4-.3-61.4 0 0-70 15-84.7-29.8 0 0-11.4-29.1-27.8-36.6 0 0-22.9-15.7 1.6-15.4 0 0 24.9 2 38.6 25.8 21.9 38.6 58.6 27.5 72.9 20.9 2.3-16 8.8-27.1 16-33.7-55.9-6.2-112.3-14.3-112.3-110.5 0-27.5 7.6-41.3 23.6-58.9-2.6-6.5-11.1-33.3 2.6-67.9 20.9-6.5 69 27 69 27 20-5.6 41.5-8.5 62.8-8.5s42.8 2.9 62.8 8.5c0 0 48.1-33.6 69-27 13.7 34.7 5.2 61.4 2.6 67.9 16 17.7 25.8 31.5 25.8 58.9 0 96.5-58.9 104.2-114.8 110.5 9.2 7.9 17 22.9 17 46.4 0 33.7-.3 75.4-.3 83.6 0 6.5 4.6 14.4 17.3 12.1C428.2 457.8 496 362.9 496 252 496 113.3 383.5 8 244.8 8zM97.2 352.9c-1.3 1-1 3.3.7 5.2 1.6 1.6 3.9 2.3 5.2 1 1.3-1 1-3.3-.7-5.2-1.6-1.6-3.9-2.3-5.2-1zm-10.8-8.1c-.7 1.3.3 2.9 2.3 3.9 1.6 1 3.6.7 4.3-.7.7-1.3-.3-2.9-2.3-3.9-2-.6-3.6-.3-4.3.7zm32.4 35.6c-1.6 1.3-1 4.3 1.3 6.2 2.3 2.3 5.2 2.6 6.5 1 1.3-1.3.7-4.3-1.3-6.2-2.2-2.3-5.2-2.6-6.5-1zm-11.4-14.7c-1.6 1-1.6 3.6 0 5.9 1.6 2.3 4.3 3.3 5.6 2.3 1.6-1.3 1.6-3.9 0-6.2-1.4-2.3-4-3.3-5.6-2z"></path>
  </symbol>

  <symbol id="icon-gitlab" viewBox="0 0 512 512">
    <path fill="currentColor" d="M29.782 199.732L256 493.714 8.074 309.699c-6.856-5.142-9.712-13.996-7.141-21.993l28.849-87.974zm75.405-174.806c-3.142-8.854-15.709-8.854-18.851 0L29.782 199.732h131.961L105.187 24.926zm56.556 174.806L256 493.714l94.257-293.982H161.743zm349.324 87.974l-28.849-87.974L256 493.714l247.926-184.015c6.855-5.142 9.711-13.996 7.141-21.993zm-85.404-262.78c-3.142-8.854-15.709-8.854-18.851 0l-56.555 174.806h131.961L425.663 24.926z"></path>
  </symbol>

  <symbol id="icon-goodreads" viewBox="0 0 448 512">
    <path fill="currentColor" d="M299.9 191.2c5.1 37.3-4.7 79-35.9 100.7-22.3 15.5-52.8 14.1-70.8 5.7-37.1-17.3-49.5-58.6-46.8-97.2 4.3-60.9 40.9-87.9 75.3-87.5 46.9-.2 71.8 31.8 78.2 78.3zM448 88v336c0 30.9-25.1 56-56 56H56c-30.9 0-56-25.1-56-56V88c0-30.9 25.1-56 56-56h336c30.9 0 56 25.1 56 56zM330 313.2s-.1-34-.1-217.3h-29v40.3c-.8.3-1.2-.5-1.6-1.2-9.6-20.7-35.9-46.3-76-46-51.9.4-87.2 31.2-100.6 77.8-4.3 14.9-5.8 30.1-5.5 45.6 1.7 77.9 45.1 117.8 112.4 115.2 28.9-1.1 54.5-17 69-45.2.5-1 1.1-1.9 1.7-2.9.2.1.4.1.6.2.3 3.8.2 30.7.1 34.5-.2 14.8-2 29.5-7.2 43.5-7.8 21-22.3 34.7-44.5 39.5-17.8 3.9-35.6 3.8-53.2-1.2-21.5-6.1-36.5-19-41.1-41.8-.3-1.6-1.3-1.3-2.3-1.3h-26.8c.8 10.6 3.2 20.3 8.5 29.2 24.2 40.5 82.7 48.5 128.2 37.4 49.9-12.3 67.3-54.9 67.4-106.3z"></path>
  </symbol>

  <symbol id="icon-instagram" viewBox="0 0 448 512">
    <path fill="currentColor" d="M224.1 141c-63.6 0-114.9 51.3-114.9 114.9s51.3 114.9 114.9 114.9S339 319.5 339 255.9 287.7 141 224.1 141zm0 189.6c-41.1 0-74.7-33.5-74.7-74.7s33.5-74.7 74.7-74.7 74.7 33.5 74.7 74.7-33.6 74.7-74.7 74.7zm146.4-194.3c0 14.9-12 26.8-26.8 26.8-14.9 0-26.8-12-26.8-26.8s12-26.8 26.8-26.8 26.8 12 26.8 26.8zm76.1 27.2c-1.7-35.9-9.9-67.7-36.2-93.9-26.2-26.2-58-34.4-93.9-36.2-37-2.1-147.9-2.1-184.9 0-35.8 1.7-67.6 9.9-93.9 36.1s-34.4 58-36.2 93.9c-2.1 37-2.1 147.9 0 184.9 1.7 35.9 9.9 67.7 36.2 93.9s58 34.4 93.9 36.2c37 2.1 147.9 2.1 184.9 0 35.9-1.7 67.7-9.9 93.9-36.2 26.2-26.2 34.4-58 36.2-93.9 2.1-37 2.1-147.8 0-184.8zM398.8 388c-7.8 19.6-22.9 34.7-42.6 42.6-29.5 11.7-99.5 9-132.1 9s-102.7 2.6-132.1-9c-19.6-7.8-34.7-22.9-42.6-42.6-11.7-29.5-9-99.5-9-132.1s-2.6-102.7 9-132.1c7.8-19.6 22.9-34.7 42.6-42.6 29.5-11.7 99.5-9 132.1-9s102.7-2.6 132.1 9c19.6 7.8 34.7 22.9 42.6 42.6 11.7 29.5 9 99.5 9 132.1s2.7 102.7-9 132.1z"></path>
  </symbol>

  <symbol id="icon-kickstarter" viewBox="0 0 448 512">
    <path fill="currentColor" d="M400 480H48c-26.4 0-48-21.6-48-48V80c0-26.4 21.6-48 48-48h352c26.4 0 48 21.6 48 48v352c0 26.4-21.6 48-48 48zM199.6 178.5c0-30.7-17.6-45.1-39.7-45.1-25.8 0-40 19.8-40 44.5v154.8c0 25.8 13.7 45.6 40.5 45.6 21.5 0 39.2-14 39.2-45.6v-41.8l60.6 75.7c12.3 14.9 39 16.8 55.8 0 14.6-15.1 14.8-36.8 4-50.4l-49.1-62.8 40.5-58.7c9.4-13.5 9.5-34.5-5.6-49.1-16.4-15.9-44.6-17.3-61.4 7l-44.8 64.7v-38.8z"></path>
  </symbol>

  <symbol id="icon-lastfm" viewBox="0 0 512 512">
    <path fill="currentColor" d="M225.8 367.1l-18.8-51s-30.5 34-76.2 34c-40.5 0-69.2-35.2-69.2-91.5 0-72.1 36.4-97.9 72.1-97.9 66.5 0 74.8 53.3 100.9 134.9 18.8 56.9 54 102.6 155.4 102.6 72.7 0 122-22.3 122-80.9 0-72.9-62.7-80.6-115-92.1-25.8-5.9-33.4-16.4-33.4-34 0-19.9 15.8-31.7 41.6-31.7 28.2 0 43.4 10.6 45.7 35.8l58.6-7c-4.7-52.8-41.1-74.5-100.9-74.5-52.8 0-104.4 19.9-104.4 83.9 0 39.9 19.4 65.1 68 76.8 44.9 10.6 79.8 13.8 79.8 45.7 0 21.7-21.1 30.5-61 30.5-59.2 0-83.9-31.1-97.9-73.9-32-96.8-43.6-163-161.3-163C45.7 113.8 0 168.3 0 261c0 89.1 45.7 137.2 127.9 137.2 66.2 0 97.9-31.1 97.9-31.1z"></path>
  </symbol>

  <symbol id="icon-linkedin" viewBox="0 0 448 512">
    <path fill="currentColor" d="M100.3 480H7.4V180.9h92.9V480zM53.8 140.1C24.1 140.1 0 115.5 0 85.8 0 56.1 24.1 32 53.8 32c29.7 0 53.8 24.1 53.8 53.8 0 29.7-24.1 54.3-53.8 54.3zM448 480h-92.7V334.4c0-34.7-.7-79.2-48.3-79.2-48.3 0-55.7 37.7-55.7 76.7V480h-92.8V180.9h89.1v40.8h1.3c12.4-23.5 42.7-48.3 87.9-48.3 94 0 111.3 61.9 111.3 142.3V480z"></path>
  </symbol>

  <symbol id="icon-medium" viewBox="0 0 512 512">
    <path fill="currentColor" d="M71.5 142.3c.6-5.9-1.7-11.8-6.1-15.8L20.3 72.1V64h140.2l108.4 237.7L364.2 64h133.7v8.1l-38.6 37c-3.3 2.5-5 6.7-4.3 10.8v272c-.7 4.1 1 8.3 4.3 10.8l37.7 37v8.1H307.3v-8.1l39.1-37.9c3.8-3.8 3.8-5 3.8-10.8V171.2L241.5 447.1h-14.7L100.4 171.2v184.9c-1.1 7.8 1.5 15.6 7 21.2l50.8 61.6v8.1h-144v-8L65 377.3c5.4-5.6 7.9-13.5 6.5-21.2V142.3z"></path>
  </symbol>

  <symbol id="icon-meetup" viewBox="0 0 512 512">
    <path fill="currentColor" d="M99 414.3c1.1 5.7-2.3 11.1-8 12.3-5.4 1.1-10.9-2.3-12-8-1.1-5.4 2.3-11.1 7.7-12.3 5.4-1.2 11.1 2.3 12.3 8zm143.1 71.4c-6.3 4.6-8 13.4-3.7 20 4.6 6.6 13.4 8.3 20 3.7 6.3-4.6 8-13.4 3.4-20-4.2-6.5-13.1-8.3-19.7-3.7zm-86-462.3c6.3-1.4 10.3-7.7 8.9-14-1.1-6.6-7.4-10.6-13.7-9.1-6.3 1.4-10.3 7.7-9.1 14 1.4 6.6 7.6 10.6 13.9 9.1zM34.4 226.3c-10-6.9-23.7-4.3-30.6 6-6.9 10-4.3 24 5.7 30.9 10 7.1 23.7 4.6 30.6-5.7 6.9-10.4 4.3-24.1-5.7-31.2zm272-170.9c10.6-6.3 13.7-20 7.7-30.3-6.3-10.6-19.7-14-30-7.7s-13.7 20-7.4 30.6c6 10.3 19.4 13.7 29.7 7.4zm-191.1 58c7.7-5.4 9.4-16 4.3-23.7s-15.7-9.4-23.1-4.3c-7.7 5.4-9.4 16-4.3 23.7 5.1 7.8 15.6 9.5 23.1 4.3zm372.3 156c-7.4 1.7-12.3 9.1-10.6 16.9 1.4 7.4 8.9 12.3 16.3 10.6 7.4-1.4 12.3-8.9 10.6-16.6-1.5-7.4-8.9-12.3-16.3-10.9zm39.7-56.8c-1.1-5.7-6.6-9.1-12-8-5.7 1.1-9.1 6.9-8 12.6 1.1 5.4 6.6 9.1 12.3 8 5.4-1.5 9.1-6.9 7.7-12.6zM447 138.9c-8.6 6-10.6 17.7-4.9 26.3 5.7 8.6 17.4 10.6 26 4.9 8.3-6 10.3-17.7 4.6-26.3-5.7-8.7-17.4-10.9-25.7-4.9zm-6.3 139.4c26.3 43.1 15.1 100-26.3 129.1-17.4 12.3-37.1 17.7-56.9 17.1-12 47.1-69.4 64.6-105.1 32.6-1.1.9-2.6 1.7-3.7 2.9-39.1 27.1-92.3 17.4-119.4-22.3-9.7-14.3-14.6-30.6-15.1-46.9-65.4-10.9-90-94-41.1-139.7-28.3-46.9.6-107.4 53.4-114.9C151.6 70 234.1 38.6 290.1 82c67.4-22.3 136.3 29.4 130.9 101.1 41.1 12.6 52.8 66.9 19.7 95.2zm-70 74.3c-3.1-20.6-40.9-4.6-43.1-27.1-3.1-32 43.7-101.1 40-128-3.4-24-19.4-29.1-33.4-29.4-13.4-.3-16.9 2-21.4 4.6-2.9 1.7-6.6 4.9-11.7-.3-6.3-6-11.1-11.7-19.4-12.9-12.3-2-17.7 2-26.6 9.7-3.4 2.9-12 12.9-20 9.1-3.4-1.7-15.4-7.7-24-11.4-16.3-7.1-40 4.6-48.6 20-12.9 22.9-38 113.1-41.7 125.1-8.6 26.6 10.9 48.6 36.9 47.1 11.1-.6 18.3-4.6 25.4-17.4 4-7.4 41.7-107.7 44.6-112.6 2-3.4 8.9-8 14.6-5.1 5.7 3.1 6.9 9.4 6 15.1-1.1 9.7-28 70.9-28.9 77.7-3.4 22.9 26.9 26.6 38.6 4 3.7-7.1 45.7-92.6 49.4-98.3 4.3-6.3 7.4-8.3 11.7-8 3.1 0 8.3.9 7.1 10.9-1.4 9.4-35.1 72.3-38.9 87.7-4.6 20.6 6.6 41.4 24.9 50.6 11.4 5.7 62.5 15.7 58.5-11.1zm5.7 92.3c-10.3 7.4-12.9 22-5.7 32.6 7.1 10.6 21.4 13.1 32 6 10.6-7.4 13.1-22 6-32.6-7.4-10.6-21.7-13.5-32.3-6z"></path>
  </symbol>

  <symbol id="icon-menu" viewBox="0 0 11 11">
    <path fill="currentColor" d="M0 10h11v1H0v-1zm0-5h11v1H0V5zm0-5h11v1H0V0z"></path>
  </symbol>

  <symbol id="icon-odnoklassniki" viewBox="0 0 320 512">
    <path fill="currentColor" d="M275.1 334c-27.4 17.4-65.1 24.3-90 26.9l20.9 20.6 76.3 76.3c27.9 28.6-17.5 73.3-45.7 45.7-19.1-19.4-47.1-47.4-76.3-76.6L84 503.4c-28.2 27.5-73.6-17.6-45.4-45.7 19.4-19.4 47.1-47.4 76.3-76.3l20.6-20.6c-24.6-2.6-62.9-9.1-90.6-26.9-32.6-21-46.9-33.3-34.3-59 7.4-14.6 27.7-26.9 54.6-5.7 0 0 36.3 28.9 94.9 28.9s94.9-28.9 94.9-28.9c26.9-21.1 47.1-8.9 54.6 5.7 12.4 25.7-1.9 38-34.5 59.1zM30.3 129.7C30.3 58 88.6 0 160 0s129.7 58 129.7 129.7c0 71.4-58.3 129.4-129.7 129.4s-129.7-58-129.7-129.4zm66 0c0 35.1 28.6 63.7 63.7 63.7s63.7-28.6 63.7-63.7c0-35.4-28.6-64-63.7-64s-63.7 28.6-63.7 64z"></path>
  </symbol>

  <symbol id="icon-pinterest" viewBox="0 0 384 512">
    <path fill="currentColor" d="M204 6.5C101.4 6.5 0 74.9 0 185.6 0 256 39.6 296 63.6 296c9.9 0 15.6-27.6 15.6-35.4 0-9.3-23.7-29.1-23.7-67.8 0-80.4 61.2-137.4 140.4-137.4 68.1 0 118.5 38.7 118.5 109.8 0 53.1-21.3 152.7-90.3 152.7-24.9 0-46.2-18-46.2-43.8 0-37.8 26.4-74.4 26.4-113.4 0-66.2-93.9-54.2-93.9 25.8 0 16.8 2.1 35.4 9.6 50.7-13.8 59.4-42 147.9-42 209.1 0 18.9 2.7 37.5 4.5 56.4 3.4 3.8 1.7 3.4 6.9 1.5 50.4-69 48.6-82.5 71.4-172.8 12.3 23.4 44.1 36 69.3 36 106.2 0 153.9-103.5 153.9-196.8C384 71.3 298.2 6.5 204 6.5z"></path>
  </symbol>

  <symbol id="icon-producthunt" viewBox="0 0 512 512">
    <path fill="currentColor" d="M326.3 218.8c0 20.5-16.7 37.2-37.2 37.2h-70.3v-74.4h70.3c20.5 0 37.2 16.7 37.2 37.2zM504 256c0 137-111 248-248 248S8 393 8 256 119 8 256 8s248 111 248 248zm-128.1-37.2c0-47.9-38.9-86.8-86.8-86.8H169.2v248h49.6v-74.4h70.3c47.9 0 86.8-38.9 86.8-86.8z"></path>
  </symbol>

  <symbol id="icon-quora" viewBox="0 0 448 512">
    <path fill="currentColor" d="M440.5 386.7h-29.3c-1.5 13.5-10.5 30.8-33 30.8-20.5 0-35.3-14.2-49.5-35.8 44.2-34.2 74.7-87.5 74.7-153C403.5 111.2 306.8 32 205 32 105.3 32 7.3 111.7 7.3 228.7c0 134.1 131.3 221.6 249 189C276 451.3 302 480 351.5 480c81.8 0 90.8-75.3 89-93.3zM297 329.2C277.5 300 253.3 277 205.5 277c-30.5 0-54.3 10-69 22.8l12.2 24.3c6.2-3 13-4 19.8-4 35.5 0 53.7 30.8 69.2 61.3-10 3-20.7 4.2-32.7 4.2-75 0-107.5-53-107.5-156.7C97.5 124.5 130 71 205 71c76.2 0 108.7 53.5 108.7 157.7.1 41.8-5.4 75.6-16.7 100.5z"></path>
  </symbol>

  <symbol id="icon-reddit" viewBox="0 0 512 512">
    <path fill="currentColor" d="M440.3 203.5c-15 0-28.2 6.2-37.9 15.9-35.7-24.7-83.8-40.6-137.1-42.3L293 52.3l88.2 19.8c0 21.6 17.6 39.2 39.2 39.2 22 0 39.7-18.1 39.7-39.7s-17.6-39.7-39.7-39.7c-15.4 0-28.7 9.3-35.3 22l-97.4-21.6c-4.9-1.3-9.7 2.2-11 7.1L246.3 177c-52.9 2.2-100.5 18.1-136.3 42.8-9.7-10.1-23.4-16.3-38.4-16.3-55.6 0-73.8 74.6-22.9 100.1-1.8 7.9-2.6 16.3-2.6 24.7 0 83.8 94.4 151.7 210.3 151.7 116.4 0 210.8-67.9 210.8-151.7 0-8.4-.9-17.2-3.1-25.1 49.9-25.6 31.5-99.7-23.8-99.7zM129.4 308.9c0-22 17.6-39.7 39.7-39.7 21.6 0 39.2 17.6 39.2 39.7 0 21.6-17.6 39.2-39.2 39.2-22 .1-39.7-17.6-39.7-39.2zm214.3 93.5c-36.4 36.4-139.1 36.4-175.5 0-4-3.5-4-9.7 0-13.7 3.5-3.5 9.7-3.5 13.2 0 27.8 28.5 120 29 149 0 3.5-3.5 9.7-3.5 13.2 0 4.1 4 4.1 10.2.1 13.7zm-.8-54.2c-21.6 0-39.2-17.6-39.2-39.2 0-22 17.6-39.7 39.2-39.7 22 0 39.7 17.6 39.7 39.7-.1 21.5-17.7 39.2-39.7 39.2z"></path>
  </symbol>

  <symbol id="icon-skype" viewBox="0 0 448 512">
    <path fill="currentColor" d="M424.7 299.8c2.9-14 4.7-28.9 4.7-43.8 0-113.5-91.9-205.3-205.3-205.3-14.9 0-29.7 1.7-43.8 4.7C161.3 40.7 137.7 32 112 32 50.2 32 0 82.2 0 144c0 25.7 8.7 49.3 23.3 68.2-2.9 14-4.7 28.9-4.7 43.8 0 113.5 91.9 205.3 205.3 205.3 14.9 0 29.7-1.7 43.8-4.7 19 14.6 42.6 23.3 68.2 23.3 61.8 0 112-50.2 112-112 .1-25.6-8.6-49.2-23.2-68.1zm-194.6 91.5c-65.6 0-120.5-29.2-120.5-65 0-16 9-30.6 29.5-30.6 31.2 0 34.1 44.9 88.1 44.9 25.7 0 42.3-11.4 42.3-26.3 0-18.7-16-21.6-42-28-62.5-15.4-117.8-22-117.8-87.2 0-59.2 58.6-81.1 109.1-81.1 55.1 0 110.8 21.9 110.8 55.4 0 16.9-11.4 31.8-30.3 31.8-28.3 0-29.2-33.5-75-33.5-25.7 0-42 7-42 22.5 0 19.8 20.8 21.8 69.1 33 41.4 9.3 90.7 26.8 90.7 77.6 0 59.1-57.1 86.5-112 86.5z"></path>
  </symbol>

  <symbol id="icon-slack" viewBox="0 0 448 512">
    <path fill="currentColor" d="M244.2 217.5l19.3 57.7-59.8 20-19.3-57.7 59.8-20zm41.4 243.7C131.6 507.4 65 471.6 18.8 317.6S8.4 97 162.4 50.8C316.4 4.6 383 40.4 429.2 194.4c46.2 154 10.4 220.6-143.6 266.8zM366.2 265c-3.9-12.2-17.2-18.6-29.4-14.7l-29 9.7-19.3-57.7 29-9.7c12.2-3.9 18.6-17.2 14.7-29.4-3.9-12.2-17.2-18.6-29.4-14.7l-29 9.7-10-30.1c-3.9-12.2-17.2-18.6-29.4-14.7-12.2 3.9-18.6 17.2-14.7 29.4l10 30.1-59.8 20.1-10-30.1c-3.9-12.2-17.2-18.6-29.4-14.7-12.2 3.9-18.6 17.2-14.7 29.4l10 30.1-29 9.7c-12.2 3.9-18.6 17.2-14.7 29.4 3.2 9.3 12.2 15.4 21.5 15.8 4.3.6 7.7-1 36.9-10.7l19.3 57.7-29 9.7c-12.2 3.9-18.6 17.2-14.7 29.4 3.2 9.3 12.2 15.4 21.5 15.8 4.3.6 7.7-1 36.9-10.7l10 30.1c3.7 10.8 15.8 18.6 29.4 14.7 12.2-3.9 18.6-17.2 14.7-29.4l-10-30.1 59.8-20.1 10 30.1c3.7 10.8 15.8 18.6 29.4 14.7 12.2-3.9 18.6-17.2 14.7-29.4l-10-30.1 29-9.7c12.2-4.2 18.6-17.5 14.7-29.6z"></path>
  </symbol>

  <symbol id="icon-snapchat" viewBox="0 0 448 512">
    <path fill="currentColor" d="M400 32H48C21.5 32 0 53.5 0 80v352c0 26.5 21.5 48 48 48h352c26.5 0 48-21.5 48-48V80c0-26.5-21.5-48-48-48zm-6.5 314.9c-3.5 8.1-18.1 14-44.8 18.2-1.4 1.9-2.5 9.8-4.3 15.9-1.1 3.7-3.7 5.9-8.1 5.9h-.2c-6.2 0-12.8-2.9-25.8-2.9-17.6 0-23.7 4-37.4 13.7-14.5 10.3-28.4 19.1-49.2 18.2-21 1.6-38.6-11.2-48.5-18.2-13.8-9.7-19.8-13.7-37.4-13.7-12.5 0-20.4 3.1-25.8 3.1-5.4 0-7.5-3.3-8.3-6-1.8-6.1-2.9-14.1-4.3-16-13.8-2.1-44.8-7.5-45.5-21.4-.2-3.6 2.3-6.8 5.9-7.4 46.3-7.6 67.1-55.1 68-57.1 0-.1.1-.2.2-.3 2.5-5 3-9.2 1.6-12.5-3.4-7.9-17.9-10.7-24-13.2-15.8-6.2-18-13.4-17-18.3 1.6-8.5 14.4-13.8 21.9-10.3 5.9 2.8 11.2 4.2 15.7 4.2 3.3 0 5.5-.8 6.6-1.4-1.4-23.9-4.7-58 3.8-77.1C159.1 100 206.7 96 220.7 96c.6 0 6.1-.1 6.7-.1 34.7 0 68 17.8 84.3 54.3 8.5 19.1 5.2 53.1 3.8 77.1 1.1.6 2.9 1.3 5.7 1.4 4.3-.2 9.2-1.6 14.7-4.2 4-1.9 9.6-1.6 13.6 0 6.3 2.3 10.3 6.8 10.4 11.9.1 6.5-5.7 12.1-17.2 16.6-1.4.6-3.1 1.1-4.9 1.7-6.5 2.1-16.4 5.2-19 11.5-1.4 3.3-.8 7.5 1.6 12.5.1.1.1.2.2.3.9 2 21.7 49.5 68 57.1 4 1 7.1 5.5 4.9 10.8z"></path>
  </symbol>

  <symbol id="icon-soundcloud" viewBox="0 0 640 512">
    <path fill="currentColor" d="M111.4 256.3l5.8 65-5.8 68.3c-.3 2.5-2.2 4.4-4.4 4.4s-4.2-1.9-4.2-4.4l-5.6-68.3 5.6-65c0-2.2 1.9-4.2 4.2-4.2 2.2 0 4.1 2 4.4 4.2zm21.4-45.6c-2.8 0-4.7 2.2-5 5l-5 105.6 5 68.3c.3 2.8 2.2 5 5 5 2.5 0 4.7-2.2 4.7-5l5.8-68.3-5.8-105.6c0-2.8-2.2-5-4.7-5zm25.5-24.1c-3.1 0-5.3 2.2-5.6 5.3l-4.4 130 4.4 67.8c.3 3.1 2.5 5.3 5.6 5.3 2.8 0 5.3-2.2 5.3-5.3l5.3-67.8-5.3-130c0-3.1-2.5-5.3-5.3-5.3zM7.2 283.2c-1.4 0-2.2 1.1-2.5 2.5L0 321.3l4.7 35c.3 1.4 1.1 2.5 2.5 2.5s2.2-1.1 2.5-2.5l5.6-35-5.6-35.6c-.3-1.4-1.1-2.5-2.5-2.5zm23.6-21.9c-1.4 0-2.5 1.1-2.5 2.5l-6.4 57.5 6.4 56.1c0 1.7 1.1 2.8 2.5 2.8s2.5-1.1 2.8-2.5l7.2-56.4-7.2-57.5c-.3-1.4-1.4-2.5-2.8-2.5zm25.3-11.4c-1.7 0-3.1 1.4-3.3 3.3L47 321.3l5.8 65.8c.3 1.7 1.7 3.1 3.3 3.1 1.7 0 3.1-1.4 3.1-3.1l6.9-65.8-6.9-68.1c0-1.9-1.4-3.3-3.1-3.3zm25.3-2.2c-1.9 0-3.6 1.4-3.6 3.6l-5.8 70 5.8 67.8c0 2.2 1.7 3.6 3.6 3.6s3.6-1.4 3.9-3.6l6.4-67.8-6.4-70c-.3-2.2-2-3.6-3.9-3.6zm241.4-110.9c-1.1-.8-2.8-1.4-4.2-1.4-2.2 0-4.2.8-5.6 1.9-1.9 1.7-3.1 4.2-3.3 6.7v.8l-3.3 176.7 1.7 32.5 1.7 31.7c.3 4.7 4.2 8.6 8.9 8.6s8.6-3.9 8.6-8.6l3.9-64.2-3.9-177.5c-.4-3-2-5.8-4.5-7.2zm-26.7 15.3c-1.4-.8-2.8-1.4-4.4-1.4s-3.1.6-4.4 1.4c-2.2 1.4-3.6 3.9-3.6 6.7l-.3 1.7-2.8 160.8s0 .3 3.1 65.6v.3c0 1.7.6 3.3 1.7 4.7 1.7 1.9 3.9 3.1 6.4 3.1 2.2 0 4.2-1.1 5.6-2.5 1.7-1.4 2.5-3.3 2.5-5.6l.3-6.7 3.1-58.6-3.3-162.8c-.3-2.8-1.7-5.3-3.9-6.7zm-111.4 22.5c-3.1 0-5.8 2.8-5.8 6.1l-4.4 140.6 4.4 67.2c.3 3.3 2.8 5.8 5.8 5.8 3.3 0 5.8-2.5 6.1-5.8l5-67.2-5-140.6c-.2-3.3-2.7-6.1-6.1-6.1zm376.7 62.8c-10.8 0-21.1 2.2-30.6 6.1-6.4-70.8-65.8-126.4-138.3-126.4-17.8 0-35 3.3-50.3 9.4-6.1 2.2-7.8 4.4-7.8 9.2v249.7c0 5 3.9 8.6 8.6 9.2h218.3c43.3 0 78.6-35 78.6-78.3.1-43.6-35.2-78.9-78.5-78.9zm-296.7-60.3c-4.2 0-7.5 3.3-7.8 7.8l-3.3 136.7 3.3 65.6c.3 4.2 3.6 7.5 7.8 7.5 4.2 0 7.5-3.3 7.5-7.5l3.9-65.6-3.9-136.7c-.3-4.5-3.3-7.8-7.5-7.8zm-53.6-7.8c-3.3 0-6.4 3.1-6.4 6.7l-3.9 145.3 3.9 66.9c.3 3.6 3.1 6.4 6.4 6.4 3.6 0 6.4-2.8 6.7-6.4l4.4-66.9-4.4-145.3c-.3-3.6-3.1-6.7-6.7-6.7zm26.7 3.4c-3.9 0-6.9 3.1-6.9 6.9L227 321.3l3.9 66.4c.3 3.9 3.1 6.9 6.9 6.9s6.9-3.1 6.9-6.9l4.2-66.4-4.2-141.7c0-3.9-3-6.9-6.9-6.9z"></path>
  </symbol>

  <symbol id="icon-stackexchange" viewBox="0 0 448 512">
    <path fill="currentColor" d="M17.7 332.3h412.7v22c0 37.7-29.3 68-65.3 68h-19L259.3 512v-89.7H83c-36 0-65.3-30.3-65.3-68v-22zm0-23.6h412.7v-85H17.7v85zm0-109.4h412.7v-85H17.7v85zM365 0H83C47 0 17.7 30.3 17.7 67.7V90h412.7V67.7C430.3 30.3 401 0 365 0z"></path>
  </symbol>

  <symbol id="icon-stackoverflow" viewBox="0 0 384 512">
    <path fill="currentColor" d="M293.7 300l-181.2-84.5 16.7-36.5 181.3 84.7-16.8 36.3zm48-76L188.2 95.7l-25.5 30.8 153.5 128.3 25.5-30.8zm39.6-31.7L262 32l-32 24 119.3 160.3 32-24zM290.7 311L95 269.7 86.8 309l195.7 41 8.2-39zm31.6 129H42.7V320h-40v160h359.5V320h-40v120zm-39.8-80h-200v39.7h200V360z"></path>
  </symbol>

  <symbol id="icon-strava" viewBox="0 0 369.2 512">
    <path fill="currentColor" d="M301.6 292l-43.9 88.2-44.6-88.2h-67.6l112.2 220 111.5-220h-67.6zM151.4 0L0 292h89.2l62.2-116.1L213.1 292h88.5L151.4 0z"></path>
  </symbol>

  <symbol id="icon-telegram" viewBox="0 0 448 512">
    <path fill="currentColor" d="M446.7 98.6l-67.6 318.8c-5.1 22.5-18.4 28.1-37.3 17.5l-103-75.9-49.7 47.8c-5.5 5.5-10.1 10.1-20.7 10.1l7.4-104.9 190.9-172.5c8.3-7.4-1.8-11.5-12.9-4.1L117.8 284 16.2 252.2c-22.1-6.9-22.5-22.1 4.6-32.7L418.2 66.4c18.4-6.9 34.5 4.1 28.5 32.2z"></path>
  </symbol>

  <symbol id="icon-tumblr" viewBox="0 0 320 512">
    <path fill="currentColor" d="M309.8 480.3c-13.6 14.5-50 31.7-97.4 31.7-120.8 0-147-88.8-147-140.6v-144H17.9c-5.5 0-10-4.5-10-10v-68c0-7.2 4.5-13.6 11.3-16 62-21.8 81.5-76 84.3-117.1.8-11 6.5-16.3 16.1-16.3h70.9c5.5 0 10 4.5 10 10v115.2h83c5.5 0 10 4.4 10 9.9v81.7c0 5.5-4.5 10-10 10h-83.4V360c0 34.2 23.7 53.6 68 35.8 4.8-1.9 9-3.2 12.7-2.2 3.5.9 5.8 3.4 7.4 7.9l22 64.3c1.8 5 3.3 10.6-.4 14.5z"></path>
  </symbol>

  <symbol id="icon-twitch" viewBox="0 0 448 512">
    <path fill="currentColor" d="M40.1 32L10 108.9v314.3h107V480h60.2l56.8-56.8h87l117-117V32H40.1zm357.8 254.1L331 353H224l-56.8 56.8V353H76.9V72.1h321v214zM331 149v116.9h-40.1V149H331zm-107 0v116.9h-40.1V149H224z"></path>
  </symbol>

  <symbol id="icon-twitter" viewBox="0 0 512 512">
    <path fill="currentColor" d="M459.37 151.716c.325 4.548.325 9.097.325 13.645 0 138.72-105.583 298.558-298.558 298.558-59.452 0-114.68-17.219-161.137-47.106 8.447.974 16.568 1.299 25.34 1.299 49.055 0 94.213-16.568 130.274-44.832-46.132-.975-84.792-31.188-98.112-72.772 6.498.974 12.995 1.624 19.818 1.624 9.421 0 18.843-1.3 27.614-3.573-48.081-9.747-84.143-51.98-84.143-102.985v-1.299c13.969 7.797 30.214 12.67 47.431 13.319-28.264-18.843-46.781-51.005-46.781-87.391 0-19.492 5.197-37.36 14.294-52.954 51.655 63.675 129.3 105.258 216.365 109.807-1.624-7.797-2.599-15.918-2.599-24.04 0-57.828 46.782-104.934 104.934-104.934 30.213 0 57.502 12.67 76.67 33.137 23.715-4.548 46.456-13.32 66.599-25.34-7.798 24.366-24.366 44.833-46.132 57.827 21.117-2.273 41.584-8.122 60.426-16.243-14.292 20.791-32.161 39.308-52.628 54.253z"></path>
  </symbol>

  <symbol id="icon-vimeo" viewBox="0 0 448 512">
    <path fill="currentColor" d="M447.8 153.6c-2 43.6-32.4 103.3-91.4 179.1-60.9 79.2-112.4 118.8-154.6 118.8-26.1 0-48.2-24.1-66.3-72.3C100.3 250 85.3 174.3 56.2 174.3c-3.4 0-15.1 7.1-35.2 21.1L0 168.2c51.6-45.3 100.9-95.7 131.8-98.5 34.9-3.4 56.3 20.5 64.4 71.5 28.7 181.5 41.4 208.9 93.6 126.7 18.7-29.6 28.8-52.1 30.2-67.6 4.8-45.9-35.8-42.8-63.3-31 22-72.1 64.1-107.1 126.2-105.1 45.8 1.2 67.5 31.1 64.9 89.4z"></path>
  </symbol>

  <symbol id="icon-vk" viewBox="0 0 576 512">
    <path fill="currentColor" d="M545 117.7c3.7-12.5 0-21.7-17.8-21.7h-58.9c-15 0-21.9 7.9-25.6 16.7 0 0-30 73.1-72.4 120.5-13.7 13.7-20 18.1-27.5 18.1-3.7 0-9.4-4.4-9.4-16.9V117.7c0-15-4.2-21.7-16.6-21.7h-92.6c-9.4 0-15 7-15 13.5 0 14.2 21.2 17.5 23.4 57.5v86.8c0 19-3.4 22.5-10.9 22.5-20 0-68.6-73.4-97.4-157.4-5.8-16.3-11.5-22.9-26.6-22.9H38.8c-16.8 0-20.2 7.9-20.2 16.7 0 15.6 20 93.1 93.1 195.5C160.4 378.1 229 416 291.4 416c37.5 0 42.1-8.4 42.1-22.9 0-66.8-3.4-73.1 15.4-73.1 8.7 0 23.7 4.4 58.7 38.1 40 40 46.6 57.9 69 57.9h58.9c16.8 0 25.3-8.4 20.4-25-11.2-34.9-86.9-106.7-90.3-111.5-8.7-11.2-6.2-16.2 0-26.2.1-.1 72-101.3 79.4-135.6z"></path>
  </symbol>

  <symbol id="icon-wordpress" viewBox="0 0 512 512">
    <path fill="currentColor" d="M256 8C119.3 8 8 119.2 8 256c0 136.7 111.3 248 248 248s248-111.3 248-248C504 119.2 392.7 8 256 8zM33 256c0-32.3 6.9-63 19.3-90.7l106.4 291.4C84.3 420.5 33 344.2 33 256zm223 223c-21.9 0-43-3.2-63-9.1l66.9-194.4 68.5 187.8c.5 1.1 1 2.1 1.6 3.1-23.1 8.1-48 12.6-74 12.6zm30.7-327.5c13.4-.7 25.5-2.1 25.5-2.1 12-1.4 10.6-19.1-1.4-18.4 0 0-36.1 2.8-59.4 2.8-21.9 0-58.7-2.8-58.7-2.8-12-.7-13.4 17.7-1.4 18.4 0 0 11.4 1.4 23.4 2.1l34.7 95.2L200.6 393l-81.2-241.5c13.4-.7 25.5-2.1 25.5-2.1 12-1.4 10.6-19.1-1.4-18.4 0 0-36.1 2.8-59.4 2.8-4.2 0-9.1-.1-14.4-.3C109.6 73 178.1 33 256 33c58 0 110.9 22.2 150.6 58.5-1-.1-1.9-.2-2.9-.2-21.9 0-37.4 19.1-37.4 39.6 0 18.4 10.6 33.9 21.9 52.3 8.5 14.8 18.4 33.9 18.4 61.5 0 19.1-7.3 41.2-17 72.1l-22.2 74.3-80.7-239.6zm81.4 297.2l68.1-196.9c12.7-31.8 17-57.2 17-79.9 0-8.2-.5-15.8-1.5-22.9 17.4 31.8 27.3 68.2 27.3 107 0 82.3-44.6 154.1-110.9 192.7z"></path>
  </symbol>

  <symbol id="icon-yelp" viewBox="0 0 384 512">
    <path fill="currentColor" d="M136.9 328c-1 .3-109.2 35.7-115.8 35.7-15.2-.9-18.5-16.2-19.9-31.2-1.5-14.2-1.4-29.8.3-46.8 1.9-18.8 5.5-45.1 24.2-44 4.8 0 67.1 25.9 112.7 44.4 17.1 6.8 18.6 35.8-1.5 41.9zm57.9-113.9c1.8 38.2-25.5 48.5-47.2 14.3L41.3 60.4c-1.5-6.6.3-12.4 5.3-17.4C62.2 26.5 146 3.2 168.1 8.9c7.5 1.9 12.1 6.1 13.8 12.6 1.3 8.3 11.5 167.4 12.9 192.6zm-1.4 164.8c0 4.6.2 116.4-1.7 121.5-2.3 6-7 9.7-14.3 11.2-10.1 1.7-27.1-1.9-51-10.7-22-8.1-56.7-21.5-49.3-42.5 2.8-6.9 51.4-62.8 77.3-93.6 12-15.2 39.8-5.5 39 14.1zm180.2-117.8c-5.6 3.7-110.8 28.2-118.1 30.6l.3-.6c-18.1 4.7-35.4-18.5-23.3-34.6 3.7-3.7 65.9-92.4 72.8-97 5.2-3.6 11.3-3.8 18.3-.6 18.4 8.8 55.1 63.1 57.4 84.6-.1 2.9 1.2 11.7-7.4 17.6zm10.1 130.7c-2.7 20.6-44.5 73.4-63.8 81-6.9 2.6-12.9 2-17.7-2-5-3.5-61.8-97.1-64.9-102.3-10.9-16.2 6.8-39.8 25.6-33.2 0 0 110.5 35.7 114.7 39.4 5.2 4.1 7.2 9.8 6.1 17.1z"></path>
  </symbol>

  <symbol id="icon-youtube" viewBox="0 0 576 512">
    <path fill="currentColor" d="M549.655 124.083c-6.281-23.65-24.787-42.276-48.284-48.597C458.781 64 288 64 288 64S117.22 64 74.629 75.486c-23.497 6.322-42.003 24.947-48.284 48.597-11.412 42.867-11.412 132.305-11.412 132.305s0 89.438 11.412 132.305c6.281 23.65 24.787 41.5 48.284 47.821C117.22 448 288 448 288 448s170.78 0 213.371-11.486c23.497-6.321 42.003-24.171 48.284-47.821 11.412-42.867 11.412-132.305 11.412-132.305s0-89.438-11.412-132.305zm-317.51 213.508V175.185l142.739 81.205-142.739 81.201z"></path>
  </symbol>

</svg>
